<svg width="345" height="112" viewBox="0 0 345 112" fill="none" xmlns="http://www.w3.org/2000/svg">
<g filter="url(#filter0_d_183_68)">
<rect x="27" y="23" width="291" height="58" rx="29" fill="white"/>
</g>
<circle cx="181" cy="52" r="20" fill="#FF6060"/>
<circle cx="127" cy="52" r="20" fill="#EBEBEB"/>
<path d="M189.654 52.581L189.471 53.5355C189.302 54.4279 188.466 55.0282 187.52 54.9362L185.637 54.7545C184.816 54.6751 184.208 54.076 183.95 53.225C183.6 52.0692 183.375 51.2125 183.375 51.2125C182.467 50.8233 181.488 50.6275 180.5 50.6375C179.334 50.6375 178.501 50.8847 177.625 51.2125C177.625 51.2125 177.39 52.0704 177.05 53.225C176.822 53.9955 176.47 54.6705 175.667 54.751L173.794 54.9396C173.338 54.9834 172.881 54.869 172.5 54.6156C172.118 54.3622 171.836 53.9853 171.699 53.5481L171.414 52.5948C171.273 52.139 171.26 51.653 171.377 51.1904C171.494 50.7278 171.736 50.3065 172.077 49.9728C173.716 48.3812 176.666 47.4842 180.491 47.4796C184.323 47.475 186.924 48.3674 188.727 49.959C189.486 50.6283 189.835 51.6357 189.654 52.581Z" fill="white"/>
<path fill-rule="evenodd" clip-rule="evenodd" d="M127 42C125.939 42 124.922 42.4214 124.172 43.1716C123.421 43.9217 123 44.9391 123 46V51C123 52.0609 123.421 53.0783 124.172 53.8284C124.922 54.5786 125.939 55 127 55C128.061 55 129.078 54.5786 129.828 53.8284C130.579 53.0783 131 52.0609 131 51V46C131 44.9391 130.579 43.9217 129.828 43.1716C129.078 42.4214 128.061 42 127 42ZM120 50C120.265 50 120.52 50.1054 120.707 50.2929C120.895 50.4804 121 50.7348 121 51C121 52.5913 121.632 54.1174 122.757 55.2426C123.883 56.3679 125.409 57 127 57C128.591 57 130.117 56.3679 131.243 55.2426C132.368 54.1174 133 52.5913 133 51C133 50.7348 133.105 50.4804 133.293 50.2929C133.48 50.1054 133.735 50 134 50C134.265 50 134.52 50.1054 134.707 50.2929C134.895 50.4804 135 50.7348 135 51C135 52.9486 134.289 54.8302 133 56.2917C131.711 57.7533 129.933 58.6942 128 58.938V61C128 61.2652 127.895 61.5196 127.707 61.7071C127.52 61.8946 127.265 62 127 62C126.735 62 126.48 61.8946 126.293 61.7071C126.105 61.5196 126 61.2652 126 61V58.938C124.067 58.6942 122.289 57.7533 121 56.2917C119.711 54.8302 119 52.9486 119 51C119 50.7348 119.105 50.4804 119.293 50.2929C119.48 50.1054 119.735 50 120 50Z" fill="#8C8C8C"/>
<circle cx="73" cy="52" r="20" fill="#EBEBEB"/>
<circle cx="235" cy="52" r="20" fill="#EBEBEB"/>
<g clip-path="url(#clip0_183_68)">
<path fill-rule="evenodd" clip-rule="evenodd" d="M229.929 45.5714C229.417 45.5714 228.927 45.7746 228.565 46.1363C228.203 46.498 228 46.9885 228 47.5V56.5C228 57.0115 228.203 57.502 228.565 57.8637C228.927 58.2254 229.417 58.4286 229.929 58.4286H239.571C240.083 58.4286 240.573 58.2254 240.935 57.8637C241.297 57.502 241.5 57.0115 241.5 56.5V55.546L244.208 56.707C244.403 56.7909 244.617 56.8249 244.829 56.8058C245.041 56.7868 245.245 56.7154 245.423 56.598C245.601 56.4806 245.746 56.3209 245.847 56.1332C245.948 55.9456 246 55.7358 246 55.5228V48.4758C246 48.2631 245.947 48.0536 245.846 47.8663C245.745 47.679 245.6 47.5196 245.422 47.4025C245.244 47.2854 245.04 47.2142 244.828 47.1953C244.617 47.1765 244.403 47.2104 244.208 47.2943L241.5 48.4553V47.5C241.5 46.9885 241.297 46.498 240.935 46.1363C240.573 45.7746 240.083 45.5714 239.571 45.5714H229.929Z" fill="#8C8C8C"/>
</g>
<path d="M64.2969 43.1667C63.7098 43.1667 63.1468 43.3999 62.7317 43.815C62.3166 44.2301 62.0834 44.7932 62.0834 45.3802V57.6198C62.0834 58.2069 62.3166 58.7699 62.7317 59.185C63.1468 59.6001 63.7098 59.8334 64.2969 59.8334H80.7032C81.2902 59.8334 81.8533 59.6001 82.2684 59.185C82.6835 58.7699 82.9167 58.2069 82.9167 57.6198V45.3802C82.9167 44.7932 82.6835 44.2301 82.2684 43.815C81.8533 43.3999 81.2902 43.1667 80.7032 43.1667H64.2969ZM72.5 46.6823C72.6724 46.6823 72.8386 46.7511 72.9605 46.8729L76.0855 49.9979C76.2076 50.12 76.2762 50.2857 76.2762 50.4584C76.2762 50.631 76.2076 50.7967 76.0855 50.9188C75.9633 51.0409 75.7977 51.1095 75.625 51.1095C75.4524 51.1095 75.2867 51.0409 75.1646 50.9188L73.1511 48.9052V55.5365C73.1511 55.7091 73.0825 55.8747 72.9604 55.9968C72.8383 56.1189 72.6727 56.1875 72.5 56.1875C72.3274 56.1875 72.1618 56.1189 72.0397 55.9968C71.9176 55.8747 71.849 55.7091 71.849 55.5365V48.9052L69.8355 50.9188C69.7133 51.0409 69.5477 51.1095 69.375 51.1095C69.2024 51.1095 69.0367 51.0409 68.9146 50.9188C68.7925 50.7967 68.7239 50.631 68.7239 50.4584C68.7239 50.2857 68.7925 50.12 68.9146 49.9979L72.0396 46.8729C72.1001 46.8125 72.1719 46.7645 72.2509 46.7318C72.3299 46.6991 72.4145 46.6823 72.5 46.6823Z" fill="#8C8C8C"/>
<path d="M284.001 50.8C283.712 50.8 283.426 50.8569 283.159 50.9675C282.892 51.0781 282.649 51.2403 282.445 51.4446C282.24 51.649 282.078 51.8917 281.968 52.1587C281.857 52.4257 281.8 52.7119 281.8 53.001C281.8 53.29 281.857 53.5762 281.968 53.8433C282.078 54.1103 282.24 54.3529 282.445 54.5573C282.649 54.7617 282.892 54.9238 283.159 55.0344C283.426 55.1451 283.712 55.202 284.001 55.202C284.585 55.2019 285.145 54.9698 285.557 54.557C285.97 54.1441 286.202 53.5842 286.202 53.0005C286.201 52.4167 285.969 51.857 285.557 51.4443C285.144 51.0316 284.584 50.7999 284 50.8H284.001ZM284.001 48.2C284.29 48.1999 284.576 48.1428 284.843 48.0321C285.11 47.9215 285.352 47.7593 285.556 47.5549C285.761 47.3505 285.923 47.1079 286.033 46.841C286.143 46.574 286.2 46.2879 286.2 45.999C286.2 45.7101 286.143 45.424 286.032 45.1572C285.922 44.8903 285.759 44.6478 285.555 44.4436C285.351 44.2394 285.108 44.0775 284.841 43.9671C284.574 43.8566 284.288 43.7999 283.999 43.8C283.416 43.8003 282.856 44.0323 282.444 44.4451C282.031 44.8578 281.8 45.4175 281.8 46.001C281.8 46.5845 282.032 47.1439 282.445 47.5563C282.858 47.9687 283.418 48.2003 284.001 48.2ZM284.001 57.8C283.417 57.8 282.857 58.0319 282.445 58.4446C282.032 58.8574 281.8 59.4172 281.8 60.001C281.8 60.5847 282.032 61.1446 282.445 61.5573C282.857 61.9701 283.417 62.202 284.001 62.202C284.585 62.202 285.145 61.9701 285.557 61.5573C285.97 61.1446 286.202 60.5847 286.202 60.001C286.202 59.4172 285.97 58.8574 285.557 58.4446C285.145 58.0319 284.585 57.8 284.001 57.8Z" fill="#8C8C8C"/>
<defs>
<filter id="filter0_d_183_68" x="0.700001" y="0.700001" width="343.6" height="110.6" filterUnits="userSpaceOnUse" color-interpolation-filters="sRGB">
<feFlood flood-opacity="0" result="BackgroundImageFix"/>
<feColorMatrix in="SourceAlpha" type="matrix" values="0 0 0 0 0 0 0 0 0 0 0 0 0 0 0 0 0 0 127 0" result="hardAlpha"/>
<feOffset dy="4"/>
<feGaussianBlur stdDeviation="13.15"/>
<feComposite in2="hardAlpha" operator="out"/>
<feColorMatrix type="matrix" values="0 0 0 0 0 0 0 0 0 0 0 0 0 0 0 0 0 0 0.1 0"/>
<feBlend mode="normal" in2="BackgroundImageFix" result="effect1_dropShadow_183_68"/>
<feBlend mode="normal" in="SourceGraphic" in2="effect1_dropShadow_183_68" result="shape"/>
</filter>
<clipPath id="clip0_183_68">
<rect width="18" height="18" fill="white" transform="translate(228 43)"/>
</clipPath>
</defs>
</svg>
