<svg width="192" height="192" viewBox="0 0 192 192" fill="none" xmlns="http://www.w3.org/2000/svg">
<path d="M162 33H54C51.6131 33 49.3239 33.9482 47.636 35.636C45.9482 37.3239 45 39.6131 45 42V57H30C27.6131 57 25.3239 57.9482 23.636 59.636C21.9482 61.3239 21 63.6131 21 66V150C21 152.387 21.9482 154.676 23.636 156.364C25.3239 158.052 27.6131 159 30 159H138C140.387 159 142.676 158.052 144.364 156.364C146.052 154.676 147 152.387 147 150V135H162C164.387 135 166.676 134.052 168.364 132.364C170.052 130.676 171 128.387 171 126V42C171 39.6131 170.052 37.3239 168.364 35.636C166.676 33.9482 164.387 33 162 33ZM51 42C51 41.2044 51.3161 40.4413 51.8787 39.8787C52.4413 39.3161 53.2043 39 54 39H162C162.796 39 163.559 39.3161 164.121 39.8787C164.684 40.4413 165 41.2044 165 42V96.3L152.333 83.6325C151.496 82.7935 150.503 82.1277 149.409 81.6735C148.315 81.2192 147.142 80.9854 145.958 80.9854C144.773 80.9854 143.6 81.2192 142.506 81.6735C141.412 82.1277 140.419 82.7935 139.583 83.6325L122.46 100.755L87.3675 65.6325C86.5314 64.7935 85.5378 64.1277 84.4439 63.6735C83.3499 63.2192 82.177 62.9854 80.9925 62.9854C79.808 62.9854 78.6351 63.2192 77.5411 63.6735C76.4472 64.1277 75.4536 64.7935 74.6175 65.6325L51 89.25V42ZM141 150C141 150.796 140.684 151.559 140.121 152.121C139.559 152.684 138.796 153 138 153H30C29.2044 153 28.4413 152.684 27.8787 152.121C27.3161 151.559 27 150.796 27 150V66C27 65.2043 27.3161 64.4413 27.8787 63.8787C28.4413 63.3161 29.2044 63 30 63H45V126C45 128.387 45.9482 130.676 47.636 132.364C49.3239 134.052 51.6131 135 54 135H141V150ZM162 129H54C53.2043 129 52.4413 128.684 51.8787 128.121C51.3161 127.559 51 126.796 51 126V97.755L78.8775 69.8775C79.1561 69.5986 79.487 69.3773 79.8512 69.2263C80.2154 69.0753 80.6058 68.9976 81 68.9976C81.3942 68.9976 81.7846 69.0753 82.1488 69.2263C82.513 69.3773 82.8439 69.5986 83.1225 69.8775L120.368 107.122C120.93 107.684 121.692 107.999 122.486 107.999C123.281 107.999 124.043 107.684 124.605 107.122L143.85 87.8775C144.129 87.5986 144.459 87.3773 144.824 87.2263C145.188 87.0753 145.578 86.9976 145.973 86.9976C146.367 86.9976 146.757 87.0753 147.121 87.2263C147.486 87.3773 147.816 87.5986 148.095 87.8775L165 104.783V126C165 126.796 164.684 127.559 164.121 128.121C163.559 128.684 162.796 129 162 129ZM123 63C123 61.8133 123.352 60.6533 124.011 59.6666C124.67 58.6799 125.608 57.9108 126.704 57.4567C127.8 57.0026 129.007 56.8838 130.171 57.1153C131.334 57.3468 132.404 57.9182 133.243 58.7574C134.082 59.5965 134.653 60.6656 134.885 61.8295C135.116 62.9933 134.997 64.1997 134.543 65.2961C134.089 66.3925 133.32 67.3295 132.333 67.9888C131.347 68.6481 130.187 69 129 69C127.409 69 125.883 68.3679 124.757 67.2426C123.632 66.1174 123 64.5913 123 63Z" fill="black" fill-opacity="0.3"/>
</svg>
