<svg width="501" height="65" viewBox="0 0 501 65" fill="none" xmlns="http://www.w3.org/2000/svg">
<path fill-rule="evenodd" clip-rule="evenodd" d="M19.5793 1.2108C8.9479 3.15967 0.891113 12.4725 0.891113 23.6671V41.9321C0.891113 54.5414 11.113 64.7633 23.7224 64.7633H478.064C490.674 64.7633 500.896 54.5414 500.896 41.9321V23.6671C500.896 11.0577 490.674 0.835815 478.064 0.835815H179.467C179.366 1.34639 179.24 1.85383 179.089 2.3579H478.064C489.833 2.3579 499.374 11.8983 499.374 23.6671V41.9321C499.374 53.7008 489.833 63.2413 478.064 63.2413H23.7224C11.9536 63.2413 2.4132 53.7008 2.4132 41.9321V23.6671C2.4132 13.1753 9.99558 4.45453 19.9795 2.68553C19.8228 2.19711 19.6892 1.70546 19.5793 1.2108Z" fill="black"/>
</svg>
